<mxfile host="Electron" modified="2024-03-18T22:53:24.638Z" agent="Mozilla/5.0 (Macintosh; Intel Mac OS X 10_15_7) AppleWebKit/537.36 (KHTML, like Gecko) draw.io/24.0.4 Chrome/120.0.6099.109 Electron/28.1.0 Safari/537.36" etag="RiDMzpM2Z9cC_dtpEsK_" version="24.0.4" type="device">
  <diagram name="Page-1" id="QnmSocm7ST7R8pEZtwlK">
    <mxGraphModel dx="2389" dy="1742" grid="1" gridSize="10" guides="1" tooltips="1" connect="1" arrows="1" fold="1" page="1" pageScale="1" pageWidth="1200" pageHeight="1600" math="0" shadow="0">
      <root>
        <mxCell id="0" />
        <mxCell id="1" parent="0" />
        <mxCell id="6hx8iQ7q4FAey0IRWf84-2" value="&lt;font style=&quot;font-size: 20px;&quot;&gt;Car&lt;/font&gt;" style="swimlane;horizontal=0;whiteSpace=wrap;html=1;fillColor=#f5f5f5;fontColor=#333333;strokeColor=#666666;" vertex="1" parent="1">
          <mxGeometry x="40" y="40" width="780" height="590" as="geometry" />
        </mxCell>
        <mxCell id="6hx8iQ7q4FAey0IRWf84-48" value="Board HW" style="swimlane;horizontal=0;whiteSpace=wrap;html=1;fillColor=#ffe6cc;strokeColor=#d79b00;" vertex="1" parent="6hx8iQ7q4FAey0IRWf84-2">
          <mxGeometry x="30" y="460" width="740" height="120" as="geometry" />
        </mxCell>
        <mxCell id="6hx8iQ7q4FAey0IRWf84-3" value="&lt;font size=&quot;1&quot;&gt;&lt;b style=&quot;font-size: 14px;&quot;&gt;ESP8266&lt;/b&gt;&lt;/font&gt;" style="shape=parallelogram;perimeter=parallelogramPerimeter;whiteSpace=wrap;html=1;fixedSize=1;fillColor=#ffe6cc;strokeColor=#d79b00;" vertex="1" parent="6hx8iQ7q4FAey0IRWf84-48">
          <mxGeometry x="40" y="40" width="160" height="60" as="geometry" />
        </mxCell>
        <mxCell id="6hx8iQ7q4FAey0IRWf84-4" value="&lt;font size=&quot;1&quot;&gt;&lt;b style=&quot;font-size: 14px;&quot;&gt;Motor HW Driver&lt;/b&gt;&lt;/font&gt;" style="shape=parallelogram;perimeter=parallelogramPerimeter;whiteSpace=wrap;html=1;fixedSize=1;fillColor=#ffe6cc;strokeColor=#d79b00;" vertex="1" parent="6hx8iQ7q4FAey0IRWf84-48">
          <mxGeometry x="200" y="40" width="160" height="60" as="geometry" />
        </mxCell>
        <mxCell id="6hx8iQ7q4FAey0IRWf84-6" value="&lt;font size=&quot;1&quot;&gt;&lt;b style=&quot;font-size: 14px;&quot;&gt;GP LEDs&lt;/b&gt;&lt;/font&gt;" style="shape=parallelogram;perimeter=parallelogramPerimeter;whiteSpace=wrap;html=1;fixedSize=1;fillColor=#ffe6cc;strokeColor=#d79b00;" vertex="1" parent="6hx8iQ7q4FAey0IRWf84-48">
          <mxGeometry x="370" y="40" width="160" height="60" as="geometry" />
        </mxCell>
        <mxCell id="6hx8iQ7q4FAey0IRWf84-5" value="&lt;font size=&quot;1&quot;&gt;&lt;b style=&quot;font-size: 14px;&quot;&gt;Heartbeat LED&lt;/b&gt;&lt;/font&gt;" style="shape=parallelogram;perimeter=parallelogramPerimeter;whiteSpace=wrap;html=1;fixedSize=1;fillColor=#ffe6cc;strokeColor=#d79b00;" vertex="1" parent="6hx8iQ7q4FAey0IRWf84-48">
          <mxGeometry x="540" y="40" width="160" height="60" as="geometry" />
        </mxCell>
        <mxCell id="6hx8iQ7q4FAey0IRWf84-49" value="TM4C" style="swimlane;horizontal=0;whiteSpace=wrap;html=1;fillColor=#f8cecc;strokeColor=#b85450;" vertex="1" parent="6hx8iQ7q4FAey0IRWf84-2">
          <mxGeometry x="30" y="10" width="740" height="440" as="geometry" />
        </mxCell>
        <mxCell id="6hx8iQ7q4FAey0IRWf84-7" value="&lt;font style=&quot;font-size: 16px;&quot;&gt;&lt;b&gt;main&lt;/b&gt;&lt;/font&gt;" style="ellipse;whiteSpace=wrap;html=1;fillColor=#dae8fc;strokeColor=#6c8ebf;" vertex="1" parent="6hx8iQ7q4FAey0IRWf84-49">
          <mxGeometry x="300" y="20" width="120" height="80" as="geometry" />
        </mxCell>
        <mxCell id="6hx8iQ7q4FAey0IRWf84-16" value="&lt;font size=&quot;1&quot;&gt;&lt;b style=&quot;font-size: 14px;&quot;&gt;UART&lt;/b&gt;&lt;/font&gt;" style="shape=parallelogram;perimeter=parallelogramPerimeter;whiteSpace=wrap;html=1;fixedSize=1;fillColor=#f8cecc;strokeColor=#b85450;" vertex="1" parent="6hx8iQ7q4FAey0IRWf84-49">
          <mxGeometry x="40" y="370" width="160" height="60" as="geometry" />
        </mxCell>
        <mxCell id="6hx8iQ7q4FAey0IRWf84-17" value="&lt;font style=&quot;font-size: 16px;&quot;&gt;&lt;b&gt;UART driver&lt;/b&gt;&lt;/font&gt;" style="ellipse;whiteSpace=wrap;html=1;fillColor=#dae8fc;strokeColor=#6c8ebf;" vertex="1" parent="6hx8iQ7q4FAey0IRWf84-49">
          <mxGeometry x="45" y="230" width="150" height="80" as="geometry" />
        </mxCell>
        <mxCell id="6hx8iQ7q4FAey0IRWf84-25" value="" style="endArrow=classic;html=1;rounded=0;entryX=0.25;entryY=0;entryDx=0;entryDy=0;" edge="1" parent="6hx8iQ7q4FAey0IRWf84-49" source="6hx8iQ7q4FAey0IRWf84-17" target="6hx8iQ7q4FAey0IRWf84-16">
          <mxGeometry width="50" height="50" relative="1" as="geometry">
            <mxPoint x="300" y="280" as="sourcePoint" />
            <mxPoint x="350" y="230" as="targetPoint" />
          </mxGeometry>
        </mxCell>
        <mxCell id="6hx8iQ7q4FAey0IRWf84-29" value="" style="endArrow=classic;html=1;rounded=0;exitX=0.75;exitY=0;exitDx=0;exitDy=0;" edge="1" parent="6hx8iQ7q4FAey0IRWf84-49" source="6hx8iQ7q4FAey0IRWf84-16" target="6hx8iQ7q4FAey0IRWf84-17">
          <mxGeometry relative="1" as="geometry">
            <mxPoint x="230" y="110" as="sourcePoint" />
            <mxPoint x="428" y="316" as="targetPoint" />
          </mxGeometry>
        </mxCell>
        <mxCell id="6hx8iQ7q4FAey0IRWf84-30" value="RX interrupt" style="edgeLabel;resizable=0;html=1;;align=center;verticalAlign=middle;" connectable="0" vertex="1" parent="6hx8iQ7q4FAey0IRWf84-29">
          <mxGeometry relative="1" as="geometry" />
        </mxCell>
        <mxCell id="6hx8iQ7q4FAey0IRWf84-31" value="" style="endArrow=classic;html=1;rounded=0;exitX=1;exitY=0;exitDx=0;exitDy=0;" edge="1" parent="6hx8iQ7q4FAey0IRWf84-49" source="6hx8iQ7q4FAey0IRWf84-17" target="6hx8iQ7q4FAey0IRWf84-7">
          <mxGeometry relative="1" as="geometry">
            <mxPoint x="314" y="251" as="sourcePoint" />
            <mxPoint x="290" y="190" as="targetPoint" />
          </mxGeometry>
        </mxCell>
        <mxCell id="6hx8iQ7q4FAey0IRWf84-32" value="RX callback" style="edgeLabel;resizable=0;html=1;;align=center;verticalAlign=middle;" connectable="0" vertex="1" parent="6hx8iQ7q4FAey0IRWf84-31">
          <mxGeometry relative="1" as="geometry" />
        </mxCell>
        <mxCell id="6hx8iQ7q4FAey0IRWf84-11" value="" style="endArrow=classic;html=1;rounded=0;entryX=0.5;entryY=0;entryDx=0;entryDy=0;exitX=0;exitY=1;exitDx=0;exitDy=0;" edge="1" parent="6hx8iQ7q4FAey0IRWf84-49" source="6hx8iQ7q4FAey0IRWf84-7" target="6hx8iQ7q4FAey0IRWf84-17">
          <mxGeometry relative="1" as="geometry">
            <mxPoint x="380" y="80" as="sourcePoint" />
            <mxPoint x="580" y="190" as="targetPoint" />
          </mxGeometry>
        </mxCell>
        <mxCell id="6hx8iQ7q4FAey0IRWf84-33" value="&lt;font style=&quot;font-size: 16px;&quot;&gt;&lt;b&gt;Motor driver&lt;/b&gt;&lt;/font&gt;&lt;div&gt;&lt;font style=&quot;font-size: 16px;&quot;&gt;&lt;b&gt;(PWM driver)&lt;/b&gt;&lt;/font&gt;&lt;/div&gt;" style="ellipse;whiteSpace=wrap;html=1;fillColor=#dae8fc;strokeColor=#6c8ebf;" vertex="1" parent="6hx8iQ7q4FAey0IRWf84-49">
          <mxGeometry x="205" y="230" width="150" height="80" as="geometry" />
        </mxCell>
        <mxCell id="6hx8iQ7q4FAey0IRWf84-34" value="&lt;font size=&quot;1&quot;&gt;&lt;b style=&quot;font-size: 14px;&quot;&gt;PWM&lt;/b&gt;&lt;/font&gt;" style="shape=parallelogram;perimeter=parallelogramPerimeter;whiteSpace=wrap;html=1;fixedSize=1;fillColor=#f8cecc;strokeColor=#b85450;" vertex="1" parent="6hx8iQ7q4FAey0IRWf84-49">
          <mxGeometry x="200" y="370" width="160" height="60" as="geometry" />
        </mxCell>
        <mxCell id="6hx8iQ7q4FAey0IRWf84-35" value="" style="endArrow=classic;html=1;rounded=0;" edge="1" parent="6hx8iQ7q4FAey0IRWf84-49" source="6hx8iQ7q4FAey0IRWf84-33" target="6hx8iQ7q4FAey0IRWf84-34">
          <mxGeometry width="50" height="50" relative="1" as="geometry">
            <mxPoint x="229" y="319" as="sourcePoint" />
            <mxPoint x="205" y="380" as="targetPoint" />
          </mxGeometry>
        </mxCell>
        <mxCell id="6hx8iQ7q4FAey0IRWf84-37" value="" style="endArrow=classic;html=1;rounded=0;exitX=0.5;exitY=1;exitDx=0;exitDy=0;" edge="1" parent="6hx8iQ7q4FAey0IRWf84-49" source="6hx8iQ7q4FAey0IRWf84-7" target="6hx8iQ7q4FAey0IRWf84-33">
          <mxGeometry relative="1" as="geometry">
            <mxPoint x="318" y="-12" as="sourcePoint" />
            <mxPoint x="130" y="240" as="targetPoint" />
          </mxGeometry>
        </mxCell>
        <mxCell id="6hx8iQ7q4FAey0IRWf84-38" value="&lt;font size=&quot;1&quot;&gt;&lt;b style=&quot;font-size: 14px;&quot;&gt;SysTick&lt;/b&gt;&lt;/font&gt;" style="shape=parallelogram;perimeter=parallelogramPerimeter;whiteSpace=wrap;html=1;fixedSize=1;fillColor=#f8cecc;strokeColor=#b85450;" vertex="1" parent="6hx8iQ7q4FAey0IRWf84-49">
          <mxGeometry x="540" y="370" width="160" height="60" as="geometry" />
        </mxCell>
        <mxCell id="6hx8iQ7q4FAey0IRWf84-41" value="&lt;span style=&quot;font-size: 16px;&quot;&gt;&lt;b&gt;Heartbeat SW&lt;/b&gt;&lt;/span&gt;" style="ellipse;whiteSpace=wrap;html=1;fillColor=#dae8fc;strokeColor=#6c8ebf;" vertex="1" parent="6hx8iQ7q4FAey0IRWf84-49">
          <mxGeometry x="545" y="230" width="150" height="80" as="geometry" />
        </mxCell>
        <mxCell id="6hx8iQ7q4FAey0IRWf84-40" value="" style="endArrow=classic;html=1;rounded=0;" edge="1" parent="6hx8iQ7q4FAey0IRWf84-49" source="6hx8iQ7q4FAey0IRWf84-7" target="6hx8iQ7q4FAey0IRWf84-41">
          <mxGeometry relative="1" as="geometry">
            <mxPoint x="360" as="sourcePoint" />
            <mxPoint x="570" y="210" as="targetPoint" />
          </mxGeometry>
        </mxCell>
        <mxCell id="6hx8iQ7q4FAey0IRWf84-42" value="" style="endArrow=classic;html=1;rounded=0;" edge="1" parent="6hx8iQ7q4FAey0IRWf84-49" source="6hx8iQ7q4FAey0IRWf84-41" target="6hx8iQ7q4FAey0IRWf84-38">
          <mxGeometry width="50" height="50" relative="1" as="geometry">
            <mxPoint x="300" y="250" as="sourcePoint" />
            <mxPoint x="350" y="200" as="targetPoint" />
          </mxGeometry>
        </mxCell>
        <mxCell id="6hx8iQ7q4FAey0IRWf84-43" value="&lt;span style=&quot;font-size: 16px;&quot;&gt;&lt;b&gt;TBD GP LED driver&lt;/b&gt;&lt;/span&gt;" style="ellipse;whiteSpace=wrap;html=1;fillColor=#dae8fc;strokeColor=#6c8ebf;" vertex="1" parent="6hx8iQ7q4FAey0IRWf84-49">
          <mxGeometry x="375" y="230" width="150" height="80" as="geometry" />
        </mxCell>
        <mxCell id="6hx8iQ7q4FAey0IRWf84-44" value="&lt;font size=&quot;1&quot;&gt;&lt;b style=&quot;font-size: 14px;&quot;&gt;GPIO&lt;/b&gt;&lt;/font&gt;" style="shape=parallelogram;perimeter=parallelogramPerimeter;whiteSpace=wrap;html=1;fixedSize=1;fillColor=#f8cecc;strokeColor=#b85450;" vertex="1" parent="6hx8iQ7q4FAey0IRWf84-49">
          <mxGeometry x="370" y="370" width="160" height="60" as="geometry" />
        </mxCell>
        <mxCell id="6hx8iQ7q4FAey0IRWf84-46" value="" style="endArrow=classic;html=1;rounded=0;" edge="1" parent="6hx8iQ7q4FAey0IRWf84-49" source="6hx8iQ7q4FAey0IRWf84-43" target="6hx8iQ7q4FAey0IRWf84-44">
          <mxGeometry width="50" height="50" relative="1" as="geometry">
            <mxPoint x="300" y="250" as="sourcePoint" />
            <mxPoint x="350" y="200" as="targetPoint" />
          </mxGeometry>
        </mxCell>
        <mxCell id="6hx8iQ7q4FAey0IRWf84-47" value="" style="endArrow=classic;html=1;rounded=0;" edge="1" parent="6hx8iQ7q4FAey0IRWf84-49" source="6hx8iQ7q4FAey0IRWf84-7" target="6hx8iQ7q4FAey0IRWf84-43">
          <mxGeometry relative="1" as="geometry">
            <mxPoint x="360" as="sourcePoint" />
            <mxPoint x="300" y="240" as="targetPoint" />
          </mxGeometry>
        </mxCell>
        <mxCell id="6hx8iQ7q4FAey0IRWf84-23" value="" style="endArrow=classic;startArrow=classic;html=1;rounded=0;" edge="1" parent="6hx8iQ7q4FAey0IRWf84-2" source="6hx8iQ7q4FAey0IRWf84-16" target="6hx8iQ7q4FAey0IRWf84-3">
          <mxGeometry width="50" height="50" relative="1" as="geometry">
            <mxPoint x="390" y="250" as="sourcePoint" />
            <mxPoint x="440" y="200" as="targetPoint" />
          </mxGeometry>
        </mxCell>
        <mxCell id="6hx8iQ7q4FAey0IRWf84-36" value="" style="endArrow=classic;html=1;rounded=0;" edge="1" parent="6hx8iQ7q4FAey0IRWf84-2" source="6hx8iQ7q4FAey0IRWf84-34" target="6hx8iQ7q4FAey0IRWf84-4">
          <mxGeometry width="50" height="50" relative="1" as="geometry">
            <mxPoint x="309.63" y="450" as="sourcePoint" />
            <mxPoint x="309.63" y="510" as="targetPoint" />
          </mxGeometry>
        </mxCell>
        <mxCell id="6hx8iQ7q4FAey0IRWf84-39" value="" style="endArrow=classic;startArrow=classic;html=1;rounded=0;" edge="1" parent="6hx8iQ7q4FAey0IRWf84-2" source="6hx8iQ7q4FAey0IRWf84-5" target="6hx8iQ7q4FAey0IRWf84-38">
          <mxGeometry width="50" height="50" relative="1" as="geometry">
            <mxPoint x="330" y="250" as="sourcePoint" />
            <mxPoint x="380" y="200" as="targetPoint" />
          </mxGeometry>
        </mxCell>
        <mxCell id="6hx8iQ7q4FAey0IRWf84-45" value="" style="endArrow=classic;html=1;rounded=0;" edge="1" parent="6hx8iQ7q4FAey0IRWf84-2" source="6hx8iQ7q4FAey0IRWf84-44" target="6hx8iQ7q4FAey0IRWf84-6">
          <mxGeometry width="50" height="50" relative="1" as="geometry">
            <mxPoint x="330" y="250" as="sourcePoint" />
            <mxPoint x="380" y="200" as="targetPoint" />
          </mxGeometry>
        </mxCell>
        <mxCell id="6hx8iQ7q4FAey0IRWf84-50" value="&lt;font style=&quot;font-size: 20px;&quot;&gt;Controller&lt;/font&gt;" style="swimlane;horizontal=0;whiteSpace=wrap;html=1;fillColor=#f5f5f5;fontColor=#333333;strokeColor=#666666;" vertex="1" parent="1">
          <mxGeometry x="40" y="670" width="780" height="570" as="geometry" />
        </mxCell>
        <mxCell id="6hx8iQ7q4FAey0IRWf84-56" value="TM4C" style="swimlane;horizontal=0;whiteSpace=wrap;html=1;fillColor=#f8cecc;strokeColor=#b85450;" vertex="1" parent="6hx8iQ7q4FAey0IRWf84-50">
          <mxGeometry x="30" y="110" width="740" height="440" as="geometry" />
        </mxCell>
        <mxCell id="6hx8iQ7q4FAey0IRWf84-57" value="&lt;font style=&quot;font-size: 16px;&quot;&gt;&lt;b&gt;main&lt;/b&gt;&lt;/font&gt;" style="ellipse;whiteSpace=wrap;html=1;fillColor=#dae8fc;strokeColor=#6c8ebf;" vertex="1" parent="6hx8iQ7q4FAey0IRWf84-56">
          <mxGeometry x="300" y="340" width="120" height="80" as="geometry" />
        </mxCell>
        <mxCell id="6hx8iQ7q4FAey0IRWf84-58" value="&lt;font size=&quot;1&quot;&gt;&lt;b style=&quot;font-size: 14px;&quot;&gt;UART&lt;/b&gt;&lt;/font&gt;" style="shape=parallelogram;perimeter=parallelogramPerimeter;whiteSpace=wrap;html=1;fixedSize=1;fillColor=#f8cecc;strokeColor=#b85450;" vertex="1" parent="6hx8iQ7q4FAey0IRWf84-56">
          <mxGeometry x="40" y="10" width="160" height="60" as="geometry" />
        </mxCell>
        <mxCell id="6hx8iQ7q4FAey0IRWf84-59" value="&lt;font style=&quot;font-size: 16px;&quot;&gt;&lt;b&gt;UART driver&lt;/b&gt;&lt;/font&gt;" style="ellipse;whiteSpace=wrap;html=1;fillColor=#dae8fc;strokeColor=#6c8ebf;" vertex="1" parent="6hx8iQ7q4FAey0IRWf84-56">
          <mxGeometry x="45" y="150" width="150" height="80" as="geometry" />
        </mxCell>
        <mxCell id="6hx8iQ7q4FAey0IRWf84-60" value="" style="endArrow=classic;html=1;rounded=0;" edge="1" parent="6hx8iQ7q4FAey0IRWf84-56" source="6hx8iQ7q4FAey0IRWf84-59" target="6hx8iQ7q4FAey0IRWf84-58">
          <mxGeometry width="50" height="50" relative="1" as="geometry">
            <mxPoint x="300" y="280" as="sourcePoint" />
            <mxPoint x="350" y="230" as="targetPoint" />
          </mxGeometry>
        </mxCell>
        <mxCell id="6hx8iQ7q4FAey0IRWf84-63" value="" style="endArrow=classic;html=1;rounded=0;exitX=1;exitY=1;exitDx=0;exitDy=0;" edge="1" parent="6hx8iQ7q4FAey0IRWf84-56" source="6hx8iQ7q4FAey0IRWf84-59" target="6hx8iQ7q4FAey0IRWf84-57">
          <mxGeometry relative="1" as="geometry">
            <mxPoint x="314" y="251" as="sourcePoint" />
            <mxPoint x="290" y="190" as="targetPoint" />
          </mxGeometry>
        </mxCell>
        <mxCell id="6hx8iQ7q4FAey0IRWf84-64" value="RX callback" style="edgeLabel;resizable=0;html=1;;align=center;verticalAlign=middle;" connectable="0" vertex="1" parent="6hx8iQ7q4FAey0IRWf84-63">
          <mxGeometry relative="1" as="geometry" />
        </mxCell>
        <mxCell id="6hx8iQ7q4FAey0IRWf84-65" value="" style="endArrow=classic;html=1;rounded=0;entryX=0.5;entryY=1;entryDx=0;entryDy=0;exitX=0;exitY=0;exitDx=0;exitDy=0;" edge="1" parent="6hx8iQ7q4FAey0IRWf84-56" source="6hx8iQ7q4FAey0IRWf84-57" target="6hx8iQ7q4FAey0IRWf84-59">
          <mxGeometry relative="1" as="geometry">
            <mxPoint x="380" y="80" as="sourcePoint" />
            <mxPoint x="580" y="190" as="targetPoint" />
          </mxGeometry>
        </mxCell>
        <mxCell id="6hx8iQ7q4FAey0IRWf84-70" value="&lt;font size=&quot;1&quot;&gt;&lt;b style=&quot;font-size: 14px;&quot;&gt;SysTick&lt;/b&gt;&lt;/font&gt;" style="shape=parallelogram;perimeter=parallelogramPerimeter;whiteSpace=wrap;html=1;fixedSize=1;fillColor=#f8cecc;strokeColor=#b85450;" vertex="1" parent="6hx8iQ7q4FAey0IRWf84-56">
          <mxGeometry x="630" y="10" width="90" height="60" as="geometry" />
        </mxCell>
        <mxCell id="6hx8iQ7q4FAey0IRWf84-71" value="&lt;span style=&quot;font-size: 16px;&quot;&gt;&lt;b&gt;Heartbeat SW&lt;/b&gt;&lt;/span&gt;" style="ellipse;whiteSpace=wrap;html=1;fillColor=#dae8fc;strokeColor=#6c8ebf;" vertex="1" parent="6hx8iQ7q4FAey0IRWf84-56">
          <mxGeometry x="635" y="150" width="85" height="80" as="geometry" />
        </mxCell>
        <mxCell id="6hx8iQ7q4FAey0IRWf84-72" value="" style="endArrow=classic;html=1;rounded=0;" edge="1" parent="6hx8iQ7q4FAey0IRWf84-56" source="6hx8iQ7q4FAey0IRWf84-57" target="6hx8iQ7q4FAey0IRWf84-71">
          <mxGeometry relative="1" as="geometry">
            <mxPoint x="360" as="sourcePoint" />
            <mxPoint x="570" y="210" as="targetPoint" />
          </mxGeometry>
        </mxCell>
        <mxCell id="6hx8iQ7q4FAey0IRWf84-73" value="" style="endArrow=classic;html=1;rounded=0;" edge="1" parent="6hx8iQ7q4FAey0IRWf84-56" source="6hx8iQ7q4FAey0IRWf84-71" target="6hx8iQ7q4FAey0IRWf84-70">
          <mxGeometry width="50" height="50" relative="1" as="geometry">
            <mxPoint x="300" y="250" as="sourcePoint" />
            <mxPoint x="350" y="200" as="targetPoint" />
          </mxGeometry>
        </mxCell>
        <mxCell id="6hx8iQ7q4FAey0IRWf84-74" value="&lt;span style=&quot;font-size: 16px;&quot;&gt;&lt;b&gt;TBD GP LED driver&lt;/b&gt;&lt;/span&gt;" style="ellipse;whiteSpace=wrap;html=1;fillColor=#dae8fc;strokeColor=#6c8ebf;" vertex="1" parent="6hx8iQ7q4FAey0IRWf84-56">
          <mxGeometry x="530" y="150" width="85" height="80" as="geometry" />
        </mxCell>
        <mxCell id="6hx8iQ7q4FAey0IRWf84-75" value="&lt;font size=&quot;1&quot;&gt;&lt;b style=&quot;font-size: 14px;&quot;&gt;GPIO&lt;/b&gt;&lt;/font&gt;" style="shape=parallelogram;perimeter=parallelogramPerimeter;whiteSpace=wrap;html=1;fixedSize=1;fillColor=#f8cecc;strokeColor=#b85450;" vertex="1" parent="6hx8iQ7q4FAey0IRWf84-56">
          <mxGeometry x="440" y="10" width="190" height="60" as="geometry" />
        </mxCell>
        <mxCell id="6hx8iQ7q4FAey0IRWf84-76" value="" style="endArrow=classic;html=1;rounded=0;" edge="1" parent="6hx8iQ7q4FAey0IRWf84-56" source="6hx8iQ7q4FAey0IRWf84-74" target="6hx8iQ7q4FAey0IRWf84-75">
          <mxGeometry width="50" height="50" relative="1" as="geometry">
            <mxPoint x="300" y="250" as="sourcePoint" />
            <mxPoint x="350" y="200" as="targetPoint" />
          </mxGeometry>
        </mxCell>
        <mxCell id="6hx8iQ7q4FAey0IRWf84-77" value="" style="endArrow=classic;html=1;rounded=0;" edge="1" parent="6hx8iQ7q4FAey0IRWf84-56" source="6hx8iQ7q4FAey0IRWf84-57" target="6hx8iQ7q4FAey0IRWf84-74">
          <mxGeometry relative="1" as="geometry">
            <mxPoint x="360" as="sourcePoint" />
            <mxPoint x="300" y="240" as="targetPoint" />
          </mxGeometry>
        </mxCell>
        <mxCell id="6hx8iQ7q4FAey0IRWf84-84" value="&lt;font size=&quot;1&quot;&gt;&lt;b style=&quot;font-size: 14px;&quot;&gt;ADC&lt;/b&gt;&lt;/font&gt;" style="shape=parallelogram;perimeter=parallelogramPerimeter;whiteSpace=wrap;html=1;fixedSize=1;fillColor=#f8cecc;strokeColor=#b85450;" vertex="1" parent="6hx8iQ7q4FAey0IRWf84-56">
          <mxGeometry x="360" y="10" width="80" height="60" as="geometry" />
        </mxCell>
        <mxCell id="6hx8iQ7q4FAey0IRWf84-88" value="&lt;font style=&quot;font-size: 16px;&quot;&gt;&lt;b&gt;User Controls driver&lt;/b&gt;&lt;/font&gt;" style="ellipse;whiteSpace=wrap;html=1;fillColor=#dae8fc;strokeColor=#6c8ebf;" vertex="1" parent="6hx8iQ7q4FAey0IRWf84-56">
          <mxGeometry x="360" y="150" width="150" height="80" as="geometry" />
        </mxCell>
        <mxCell id="6hx8iQ7q4FAey0IRWf84-89" value="" style="endArrow=classic;startArrow=classic;html=1;rounded=0;" edge="1" parent="6hx8iQ7q4FAey0IRWf84-56" source="6hx8iQ7q4FAey0IRWf84-88" target="6hx8iQ7q4FAey0IRWf84-84">
          <mxGeometry width="50" height="50" relative="1" as="geometry">
            <mxPoint x="270" y="50" as="sourcePoint" />
            <mxPoint x="320" as="targetPoint" />
          </mxGeometry>
        </mxCell>
        <mxCell id="6hx8iQ7q4FAey0IRWf84-91" value="" style="endArrow=classic;html=1;rounded=0;" edge="1" parent="6hx8iQ7q4FAey0IRWf84-56" source="6hx8iQ7q4FAey0IRWf84-75" target="6hx8iQ7q4FAey0IRWf84-88">
          <mxGeometry width="50" height="50" relative="1" as="geometry">
            <mxPoint x="270" y="50" as="sourcePoint" />
            <mxPoint x="320" as="targetPoint" />
          </mxGeometry>
        </mxCell>
        <mxCell id="6hx8iQ7q4FAey0IRWf84-92" value="&lt;font size=&quot;1&quot;&gt;&lt;b style=&quot;font-size: 14px;&quot;&gt;Timer&lt;/b&gt;&lt;/font&gt;" style="shape=parallelogram;perimeter=parallelogramPerimeter;whiteSpace=wrap;html=1;fixedSize=1;fillColor=#f8cecc;strokeColor=#b85450;" vertex="1" parent="6hx8iQ7q4FAey0IRWf84-56">
          <mxGeometry x="280" y="10" width="80" height="60" as="geometry" />
        </mxCell>
        <mxCell id="6hx8iQ7q4FAey0IRWf84-93" value="" style="endArrow=classic;html=1;rounded=0;" edge="1" parent="6hx8iQ7q4FAey0IRWf84-56" source="6hx8iQ7q4FAey0IRWf84-92" target="6hx8iQ7q4FAey0IRWf84-88">
          <mxGeometry width="50" height="50" relative="1" as="geometry">
            <mxPoint x="280" y="171" as="sourcePoint" />
            <mxPoint x="260" y="90" as="targetPoint" />
          </mxGeometry>
        </mxCell>
        <mxCell id="6hx8iQ7q4FAey0IRWf84-95" value="" style="endArrow=classic;startArrow=classic;html=1;rounded=0;" edge="1" parent="6hx8iQ7q4FAey0IRWf84-56" source="6hx8iQ7q4FAey0IRWf84-57" target="6hx8iQ7q4FAey0IRWf84-88">
          <mxGeometry width="50" height="50" relative="1" as="geometry">
            <mxPoint x="270" y="50" as="sourcePoint" />
            <mxPoint x="320" as="targetPoint" />
          </mxGeometry>
        </mxCell>
        <mxCell id="6hx8iQ7q4FAey0IRWf84-96" value="&lt;font style=&quot;font-size: 16px;&quot;&gt;&lt;b&gt;Display Driver&lt;/b&gt;&lt;/font&gt;" style="ellipse;whiteSpace=wrap;html=1;fillColor=#dae8fc;strokeColor=#6c8ebf;" vertex="1" parent="6hx8iQ7q4FAey0IRWf84-56">
          <mxGeometry x="210" y="150" width="140" height="80" as="geometry" />
        </mxCell>
        <mxCell id="6hx8iQ7q4FAey0IRWf84-97" value="" style="endArrow=classic;html=1;rounded=0;" edge="1" parent="6hx8iQ7q4FAey0IRWf84-56" source="6hx8iQ7q4FAey0IRWf84-57" target="6hx8iQ7q4FAey0IRWf84-96">
          <mxGeometry width="50" height="50" relative="1" as="geometry">
            <mxPoint x="270" y="50" as="sourcePoint" />
            <mxPoint x="320" as="targetPoint" />
          </mxGeometry>
        </mxCell>
        <mxCell id="6hx8iQ7q4FAey0IRWf84-98" value="&lt;font size=&quot;1&quot;&gt;&lt;b style=&quot;font-size: 14px;&quot;&gt;SPI&lt;/b&gt;&lt;/font&gt;" style="shape=parallelogram;perimeter=parallelogramPerimeter;whiteSpace=wrap;html=1;fixedSize=1;fillColor=#f8cecc;strokeColor=#b85450;" vertex="1" parent="6hx8iQ7q4FAey0IRWf84-56">
          <mxGeometry x="200" y="10" width="80" height="60" as="geometry" />
        </mxCell>
        <mxCell id="6hx8iQ7q4FAey0IRWf84-99" value="" style="endArrow=classic;html=1;rounded=0;" edge="1" parent="6hx8iQ7q4FAey0IRWf84-56" source="6hx8iQ7q4FAey0IRWf84-96" target="6hx8iQ7q4FAey0IRWf84-98">
          <mxGeometry width="50" height="50" relative="1" as="geometry">
            <mxPoint x="130" y="160" as="sourcePoint" />
            <mxPoint x="130" y="80" as="targetPoint" />
          </mxGeometry>
        </mxCell>
        <mxCell id="6hx8iQ7q4FAey0IRWf84-51" value="Board HW" style="swimlane;horizontal=0;whiteSpace=wrap;html=1;fillColor=#ffe6cc;strokeColor=#d79b00;" vertex="1" parent="6hx8iQ7q4FAey0IRWf84-50">
          <mxGeometry x="30" y="10" width="740" height="90" as="geometry" />
        </mxCell>
        <mxCell id="6hx8iQ7q4FAey0IRWf84-52" value="&lt;font size=&quot;1&quot;&gt;&lt;b style=&quot;font-size: 14px;&quot;&gt;ESP8266&lt;/b&gt;&lt;/font&gt;" style="shape=parallelogram;perimeter=parallelogramPerimeter;whiteSpace=wrap;html=1;fixedSize=1;fillColor=#ffe6cc;strokeColor=#d79b00;" vertex="1" parent="6hx8iQ7q4FAey0IRWf84-51">
          <mxGeometry x="40" y="10" width="160" height="60" as="geometry" />
        </mxCell>
        <mxCell id="6hx8iQ7q4FAey0IRWf84-53" value="&lt;font size=&quot;1&quot;&gt;&lt;b style=&quot;font-size: 14px;&quot;&gt;LCD&lt;/b&gt;&lt;/font&gt;" style="shape=parallelogram;perimeter=parallelogramPerimeter;whiteSpace=wrap;html=1;fixedSize=1;fillColor=#ffe6cc;strokeColor=#d79b00;" vertex="1" parent="6hx8iQ7q4FAey0IRWf84-51">
          <mxGeometry x="200" y="10" width="160" height="60" as="geometry" />
        </mxCell>
        <mxCell id="6hx8iQ7q4FAey0IRWf84-54" value="&lt;font size=&quot;1&quot;&gt;&lt;b style=&quot;font-size: 14px;&quot;&gt;GP LEDs&lt;/b&gt;&lt;/font&gt;" style="shape=parallelogram;perimeter=parallelogramPerimeter;whiteSpace=wrap;html=1;fixedSize=1;fillColor=#ffe6cc;strokeColor=#d79b00;" vertex="1" parent="6hx8iQ7q4FAey0IRWf84-51">
          <mxGeometry x="520" y="10" width="100" height="60" as="geometry" />
        </mxCell>
        <mxCell id="6hx8iQ7q4FAey0IRWf84-55" value="&lt;font size=&quot;1&quot;&gt;&lt;b style=&quot;font-size: 14px;&quot;&gt;Heartbeat LED&lt;/b&gt;&lt;/font&gt;" style="shape=parallelogram;perimeter=parallelogramPerimeter;whiteSpace=wrap;html=1;fixedSize=1;fillColor=#ffe6cc;strokeColor=#d79b00;" vertex="1" parent="6hx8iQ7q4FAey0IRWf84-51">
          <mxGeometry x="610" y="10" width="90" height="60" as="geometry" />
        </mxCell>
        <mxCell id="6hx8iQ7q4FAey0IRWf84-82" value="&lt;font size=&quot;1&quot;&gt;&lt;b style=&quot;font-size: 14px;&quot;&gt;Slide&lt;/b&gt;&lt;/font&gt;&lt;div&gt;&lt;font size=&quot;1&quot;&gt;&lt;b style=&quot;font-size: 14px;&quot;&gt;Pot&lt;/b&gt;&lt;/font&gt;&lt;/div&gt;" style="shape=parallelogram;perimeter=parallelogramPerimeter;whiteSpace=wrap;html=1;fixedSize=1;fillColor=#ffe6cc;strokeColor=#d79b00;" vertex="1" parent="6hx8iQ7q4FAey0IRWf84-51">
          <mxGeometry x="360" y="10" width="80" height="60" as="geometry" />
        </mxCell>
        <mxCell id="6hx8iQ7q4FAey0IRWf84-83" value="&lt;font size=&quot;1&quot;&gt;&lt;b style=&quot;font-size: 14px;&quot;&gt;Buttons&lt;/b&gt;&lt;/font&gt;" style="shape=parallelogram;perimeter=parallelogramPerimeter;whiteSpace=wrap;html=1;fixedSize=1;fillColor=#ffe6cc;strokeColor=#d79b00;" vertex="1" parent="6hx8iQ7q4FAey0IRWf84-51">
          <mxGeometry x="440" y="10" width="80" height="60" as="geometry" />
        </mxCell>
        <mxCell id="6hx8iQ7q4FAey0IRWf84-78" value="" style="endArrow=classic;startArrow=classic;html=1;rounded=0;" edge="1" parent="6hx8iQ7q4FAey0IRWf84-50" source="6hx8iQ7q4FAey0IRWf84-58" target="6hx8iQ7q4FAey0IRWf84-52">
          <mxGeometry width="50" height="50" relative="1" as="geometry">
            <mxPoint x="390" y="250" as="sourcePoint" />
            <mxPoint x="440" y="200" as="targetPoint" />
          </mxGeometry>
        </mxCell>
        <mxCell id="6hx8iQ7q4FAey0IRWf84-81" value="" style="endArrow=classic;html=1;rounded=0;" edge="1" parent="6hx8iQ7q4FAey0IRWf84-50" source="6hx8iQ7q4FAey0IRWf84-75" target="6hx8iQ7q4FAey0IRWf84-54">
          <mxGeometry width="50" height="50" relative="1" as="geometry">
            <mxPoint x="330" y="250" as="sourcePoint" />
            <mxPoint x="380" y="200" as="targetPoint" />
          </mxGeometry>
        </mxCell>
        <mxCell id="6hx8iQ7q4FAey0IRWf84-80" value="" style="endArrow=classic;startArrow=classic;html=1;rounded=0;" edge="1" parent="6hx8iQ7q4FAey0IRWf84-50" source="6hx8iQ7q4FAey0IRWf84-55" target="6hx8iQ7q4FAey0IRWf84-70">
          <mxGeometry width="50" height="50" relative="1" as="geometry">
            <mxPoint x="330" y="250" as="sourcePoint" />
            <mxPoint x="380" y="200" as="targetPoint" />
          </mxGeometry>
        </mxCell>
        <mxCell id="6hx8iQ7q4FAey0IRWf84-86" value="" style="endArrow=classic;html=1;rounded=0;" edge="1" parent="6hx8iQ7q4FAey0IRWf84-50" source="6hx8iQ7q4FAey0IRWf84-83" target="6hx8iQ7q4FAey0IRWf84-75">
          <mxGeometry width="50" height="50" relative="1" as="geometry">
            <mxPoint x="586" y="160" as="sourcePoint" />
            <mxPoint x="600" y="120" as="targetPoint" />
          </mxGeometry>
        </mxCell>
        <mxCell id="6hx8iQ7q4FAey0IRWf84-87" value="" style="endArrow=classic;html=1;rounded=0;" edge="1" parent="6hx8iQ7q4FAey0IRWf84-50" source="6hx8iQ7q4FAey0IRWf84-82" target="6hx8iQ7q4FAey0IRWf84-84">
          <mxGeometry width="50" height="50" relative="1" as="geometry">
            <mxPoint x="537" y="120" as="sourcePoint" />
            <mxPoint x="559" y="160" as="targetPoint" />
          </mxGeometry>
        </mxCell>
        <mxCell id="6hx8iQ7q4FAey0IRWf84-100" value="" style="endArrow=classic;html=1;rounded=0;" edge="1" parent="6hx8iQ7q4FAey0IRWf84-50" source="6hx8iQ7q4FAey0IRWf84-98" target="6hx8iQ7q4FAey0IRWf84-53">
          <mxGeometry width="50" height="50" relative="1" as="geometry">
            <mxPoint x="310" y="300" as="sourcePoint" />
            <mxPoint x="288" y="220" as="targetPoint" />
          </mxGeometry>
        </mxCell>
        <mxCell id="6hx8iQ7q4FAey0IRWf84-102" value="" style="endArrow=classic;html=1;rounded=0;" edge="1" parent="1" source="6hx8iQ7q4FAey0IRWf84-52" target="6hx8iQ7q4FAey0IRWf84-3">
          <mxGeometry relative="1" as="geometry">
            <mxPoint x="160" y="650" as="sourcePoint" />
            <mxPoint x="260" y="650" as="targetPoint" />
          </mxGeometry>
        </mxCell>
        <mxCell id="6hx8iQ7q4FAey0IRWf84-103" value="" style="shape=message;html=1;outlineConnect=0;" vertex="1" parent="6hx8iQ7q4FAey0IRWf84-102">
          <mxGeometry width="20" height="14" relative="1" as="geometry">
            <mxPoint x="-10" y="-7" as="offset" />
          </mxGeometry>
        </mxCell>
      </root>
    </mxGraphModel>
  </diagram>
</mxfile>
